<svg xmlns="http://www.w3.org/2000/svg" width="300" height="165" viewBox="0 0 300 165" role="img" aria-labelledby="title desc">
  <title id="title">Top Languages</title>
  <desc id="desc">Top repository languages for B-i-i-t.</desc>
  <style>
    .title { fill: #24292f; font: 600 18px -apple-system, BlinkMacSystemFont, "Segoe UI", sans-serif; }
    .label { fill: #57606a; font: 13px -apple-system, BlinkMacSystemFont, "Segoe UI", sans-serif; }
    .value { fill: #24292f; font: 600 13px -apple-system, BlinkMacSystemFont, "Segoe UI", sans-serif; text-anchor: end; }
  </style>
  <rect width="300" height="165" rx="6" fill="#ffffff" stroke="#d0d7de" />
  <text x="20" y="34" class="title">Top Languages</text>
  <clipPath id="barClip"><rect x="20" y="48" width="260" height="8" rx="4" /></clipPath>
  <g clip-path="url(#barClip)">
    <rect x="20" y="48" width="260" height="8" fill="#d0d7de" />
    <rect x="20.00" y="48" width="141.81" height="8" fill="#3178c6" /><rect x="161.81" y="48" width="52.43" height="8" fill="#f1e05a" /><rect x="214.24" y="48" width="27.40" height="8" fill="#3572A5" /><rect x="241.64" y="48" width="21.64" height="8" fill="#b07219" /><rect x="263.28" y="48" width="8.80" height="8" fill="#89e051" /><rect x="272.07" y="48" width="6.08" height="8" fill="#4F5D95" />
  </g>
  <circle cx="26" cy="78" r="4" fill="#3178c6" /><text x="38" y="82" class="label">Java</text><text x="274" y="82" class="value">54.5%</text><circle cx="26" cy="96" r="4" fill="#f1e05a" /><text x="38" y="100" class="label">JavaScript</text><text x="274" y="100" class="value">20.2%</text><circle cx="26" cy="114" r="4" fill="#3572A5" /><text x="38" y="118" class="label">CSS</text><text x="274" y="118" class="value">10.5%</text><circle cx="26" cy="132" r="4" fill="#b07219" /><text x="38" y="136" class="label">HTML</text><text x="274" y="136" class="value">8.3%</text><circle cx="26" cy="150" r="4" fill="#89e051" /><text x="38" y="154" class="label">Python</text><text x="274" y="154" class="value">3.4%</text><circle cx="26" cy="168" r="4" fill="#4F5D95" /><text x="38" y="172" class="label">TypeScript</text><text x="274" y="172" class="value">2.3%</text>
</svg>
